<svg version="1.1" id="Layer_1" xmlns="http://www.w3.org/2000/svg" xmlns:xlink="http://www.w3.org/1999/xlink" x="0px" y="0px"
	 width="100%" viewBox="0 0 500 500" enable-background="new 0 0 500 500" xml:space="preserve">
<path fill="#000000" opacity="1.000000" stroke="none" 
	d="
M501.000000,245.000000 
	C501.000000,330.666656 501.000000,415.833282 501.000000,500.999939 
	C334.333405,500.999969 167.666794,500.999969 1.000135,501.000000 
	C1.000090,334.333435 1.000090,167.666870 1.000045,1.000225 
	C167.666519,1.000150 334.333038,1.000150 500.999786,1.000075 
	C501.000000,82.166664 501.000000,163.333328 501.000000,245.000000 
M38.487686,323.987854 
	C43.565720,335.434113 48.301373,347.047882 53.801689,358.287506 
	C62.143764,375.334137 73.527023,390.436676 86.714539,403.916656 
	C96.241669,413.655060 106.919907,422.333374 117.541237,430.919861 
	C133.638931,443.933411 151.928650,453.157867 171.173019,460.651642 
	C192.842606,469.089783 215.414536,473.379822 238.455566,474.839630 
	C254.610184,475.863129 270.765503,474.558868 286.850952,472.112671 
	C307.499237,468.972626 327.119904,462.735657 345.958069,453.960510 
	C364.440674,445.350983 381.353455,434.370667 396.812103,420.914276 
	C412.420380,407.327606 426.474731,392.385834 437.782318,375.187256 
	C449.173126,357.862122 458.254730,339.297943 464.501343,319.308594 
	C470.196045,301.085297 473.719299,282.539917 474.852264,263.615570 
	C475.859894,246.784241 474.939484,229.917480 471.993195,213.239639 
	C468.377838,192.774338 462.756714,172.877579 453.553650,154.215332 
	C440.068390,126.869568 422.517456,102.573883 399.198517,82.535362 
	C385.843506,71.059074 371.618530,61.010578 356.180908,52.656143 
	C329.107025,38.004482 300.136597,29.058655 269.478149,27.297689 
	C252.541199,26.324860 235.385147,27.727413 218.414780,29.119112 
	C194.210236,31.104071 171.678741,39.452148 150.102509,50.114136 
	C136.046585,57.059933 122.947464,65.641586 110.627602,75.545547 
	C96.214142,87.132553 83.490105,100.286507 72.204041,114.748207 
	C62.377724,127.339417 54.319717,141.114456 47.517399,155.701752 
	C34.842968,182.881500 27.346630,211.193954 27.080009,241.218201 
	C26.962254,254.478775 26.567608,267.906067 28.379364,280.969086 
	C30.359898,295.248993 34.746140,309.195251 38.487686,323.987854 
z"/>
<path fill="#5E17EB" opacity="1.000000" stroke="none" 
	d="
M38.285767,323.637390 
	C34.746140,309.195251 30.359898,295.248993 28.379364,280.969086 
	C26.567608,267.906067 26.962254,254.478775 27.080009,241.218201 
	C27.346630,211.193954 34.842968,182.881500 47.517399,155.701752 
	C54.319717,141.114456 62.377724,127.339417 72.204041,114.748207 
	C83.490105,100.286507 96.214142,87.132553 110.627602,75.545547 
	C122.947464,65.641586 136.046585,57.059933 150.102509,50.114136 
	C171.678741,39.452148 194.210236,31.104071 218.414780,29.119112 
	C235.385147,27.727413 252.541199,26.324860 269.478149,27.297689 
	C300.136597,29.058655 329.107025,38.004482 356.180908,52.656143 
	C371.618530,61.010578 385.843506,71.059074 399.198517,82.535362 
	C422.517456,102.573883 440.068390,126.869568 453.553650,154.215332 
	C462.756714,172.877579 468.377838,192.774338 471.993195,213.239639 
	C474.939484,229.917480 475.859894,246.784241 474.852264,263.615570 
	C473.719299,282.539917 470.196045,301.085297 464.501343,319.308594 
	C458.254730,339.297943 449.173126,357.862122 437.782318,375.187256 
	C426.474731,392.385834 412.420380,407.327606 396.812103,420.914276 
	C381.353455,434.370667 364.440674,445.350983 345.958069,453.960510 
	C327.119904,462.735657 307.499237,468.972626 286.850952,472.112671 
	C270.765503,474.558868 254.610184,475.863129 238.455566,474.839630 
	C215.414536,473.379822 192.842606,469.089783 171.173019,460.651642 
	C151.928650,453.157867 133.638931,443.933411 117.541237,430.919861 
	C106.919907,422.333374 96.241669,413.655060 86.714539,403.916656 
	C73.527023,390.436676 62.143764,375.334137 53.801689,358.287506 
	C48.301373,347.047882 43.565720,335.434113 38.285767,323.637390 
M337.500427,442.000092 
	C356.302338,433.580963 373.186340,422.338013 388.835449,408.886719 
	C403.477203,396.301300 415.651489,381.658539 426.337006,365.868195 
	C437.042908,350.047791 445.101837,332.729858 450.899292,314.411682 
	C457.065979,294.926758 460.169647,274.952698 460.922089,254.600021 
	C461.109985,249.518082 460.527618,244.378799 459.960236,239.303772 
	C458.760193,228.569702 457.845306,217.767532 455.904205,207.159668 
	C451.081146,180.802368 440.270325,156.713058 425.622131,134.507812 
	C414.799042,118.101143 401.585480,103.588623 386.460358,90.836220 
	C374.145874,80.453545 360.973511,71.452660 346.752136,63.964455 
	C321.709869,50.778553 294.867798,43.361923 266.815033,41.222553 
	C248.536499,39.828594 230.062119,40.472385 211.966919,44.143410 
	C191.805389,48.233639 172.521072,54.925587 154.122253,64.320152 
	C131.811478,75.712196 112.395332,90.947197 95.624916,109.234215 
	C79.885117,126.397423 67.342430,145.930664 58.078041,167.492676 
	C48.711582,189.292252 42.871975,211.992126 41.175659,235.552750 
	C39.893013,253.367767 40.696064,271.318726 44.161247,288.904480 
	C48.559174,311.223938 56.038883,332.485596 67.058685,352.542267 
	C78.791077,373.895813 94.313171,392.100708 112.106522,408.424561 
	C119.444672,415.156647 127.342476,421.506012 135.769440,426.776367 
	C152.923294,437.504486 170.964935,446.571838 190.624542,452.036194 
	C208.013565,456.869385 225.650696,460.171936 243.696152,460.974060 
	C259.577789,461.679962 275.325775,460.155914 290.855347,456.932526 
	C306.660400,453.651978 322.314758,449.729614 337.500427,442.000092 
z"/>
<path fill="#000000" opacity="1.000000" stroke="none" 
	d="
M337.115662,442.039124 
	C322.314758,449.729614 306.660400,453.651978 290.855347,456.932526 
	C275.325775,460.155914 259.577789,461.679962 243.696152,460.974060 
	C225.650696,460.171936 208.013565,456.869385 190.624542,452.036194 
	C170.964935,446.571838 152.923294,437.504486 135.769440,426.776367 
	C127.342476,421.506012 119.444672,415.156647 112.106522,408.424561 
	C94.313171,392.100708 78.791077,373.895813 67.058685,352.542267 
	C56.038883,332.485596 48.559174,311.223938 44.161247,288.904480 
	C40.696064,271.318726 39.893013,253.367767 41.175659,235.552750 
	C42.871975,211.992126 48.711582,189.292252 58.078041,167.492676 
	C67.342430,145.930664 79.885117,126.397423 95.624916,109.234215 
	C112.395332,90.947197 131.811478,75.712196 154.122253,64.320152 
	C172.521072,54.925587 191.805389,48.233639 211.966919,44.143410 
	C230.062119,40.472385 248.536499,39.828594 266.815033,41.222553 
	C294.867798,43.361923 321.709869,50.778553 346.752136,63.964455 
	C360.973511,71.452660 374.145874,80.453545 386.460358,90.836220 
	C401.585480,103.588623 414.799042,118.101143 425.622131,134.507812 
	C440.270325,156.713058 451.081146,180.802368 455.904205,207.159668 
	C457.845306,217.767532 458.760193,228.569702 459.960236,239.303772 
	C460.527618,244.378799 461.109985,249.518082 460.922089,254.600021 
	C460.169647,274.952698 457.065979,294.926758 450.899292,314.411682 
	C445.101837,332.729858 437.042908,350.047791 426.337006,365.868195 
	C415.651489,381.658539 403.477203,396.301300 388.835449,408.886719 
	C373.186340,422.338013 356.302338,433.580963 337.115662,442.039124 
M355.814453,304.519897 
	C355.821533,292.026672 355.828583,279.533447 355.987244,266.309875 
	C359.656555,259.713623 363.247925,253.072464 367.015930,246.533081 
	C371.257202,239.172318 375.780029,231.972382 379.955811,224.575699 
	C384.447174,216.620026 388.671722,208.513870 393.024994,200.480057 
	C395.149078,196.560120 397.301147,192.655396 399.847260,188.000168 
	C392.865845,188.000168 387.193604,187.700043 381.583862,188.160782 
	C379.584045,188.325012 376.981323,189.878754 375.954193,191.582306 
	C372.317993,197.613312 369.274170,203.999420 365.950348,210.221298 
	C359.736938,221.852280 353.484650,233.462524 346.948425,245.640564 
	C346.034241,243.435913 345.579041,241.889923 344.798981,240.530334 
	C340.000824,232.167648 334.939606,223.950134 330.338531,215.481873 
	C326.206451,207.876862 322.684570,199.941208 318.590729,192.313919 
	C317.638245,190.539322 315.553864,188.354904 313.825470,188.200150 
	C308.063507,187.684189 302.226654,188.004761 296.281830,188.004761 
	C296.281830,189.454300 295.888336,190.768158 296.342316,191.641510 
	C301.235626,201.055313 306.115479,210.482040 311.300293,219.736420 
	C315.248688,226.783875 319.718475,233.537140 323.792419,240.516922 
	C327.253204,246.446152 330.774750,252.371872 333.716614,258.561859 
	C336.066071,263.505463 338.456116,268.412201 338.144287,274.403259 
	C337.620483,284.467590 338.000916,294.578979 338.000916,304.834320 
	C344.088196,304.834320 349.550934,304.834320 355.814453,304.519897 
M189.445557,291.919403 
	C188.926865,290.742981 188.542053,289.483063 187.868591,288.403168 
	C181.659256,278.446381 175.399979,268.520782 169.938812,259.832672 
	C174.807739,254.772903 180.771896,250.817795 183.470535,245.273300 
	C188.150162,235.658768 189.163681,224.822662 186.575211,214.192413 
	C183.243210,200.508850 173.772476,192.175095 160.399368,190.311325 
	C146.228546,188.336365 131.735977,188.660828 117.381851,188.028671 
	C116.301697,187.981110 115.204735,188.315109 114.276855,188.448532 
	C114.276855,227.400482 114.276855,265.991852 114.276855,304.662476 
	C119.941864,304.662476 125.326607,304.662476 131.246933,304.662476 
	C131.246933,290.940857 131.246933,277.551910 131.246933,264.000244 
	C135.947998,264.000244 140.253708,264.689087 144.233032,263.842987 
	C150.619507,262.485107 153.295059,267.224426 155.702103,270.786346 
	C162.640335,281.053345 168.690750,291.917877 175.223907,302.464722 
	C175.917068,303.583740 177.469269,304.818481 178.668640,304.866882 
	C184.712143,305.110718 190.770813,304.978851 198.487762,304.978851 
	C195.077240,299.962799 192.525604,296.209930 189.445557,291.919403 
M250.999710,211.500000 
	C250.999710,261.661896 250.999649,311.823822 250.999832,361.985718 
	C250.999847,366.318634 251.082001,370.653564 250.975983,374.983856 
	C250.896271,378.239502 252.321655,378.516571 254.756409,377.494507 
	C254.756409,291.932312 254.756409,206.657669 254.756409,121.403503 
	C250.055206,119.958679 251.024307,123.278816 251.021698,125.508072 
	C250.988525,153.838684 250.999771,182.169357 250.999710,211.500000 
z"/>
<path fill="#5651E5" opacity="1.000000" stroke="none" 
	d="
M189.709763,292.188232 
	C192.525604,296.209930 195.077240,299.962799 198.487762,304.978851 
	C190.770813,304.978851 184.712143,305.110718 178.668640,304.866882 
	C177.469269,304.818481 175.917068,303.583740 175.223907,302.464722 
	C168.690750,291.917877 162.640335,281.053345 155.702103,270.786346 
	C153.295059,267.224426 150.619507,262.485107 144.233032,263.842987 
	C140.253708,264.689087 135.947998,264.000244 131.246933,264.000244 
	C131.246933,277.551910 131.246933,290.940857 131.246933,304.662476 
	C125.326607,304.662476 119.941864,304.662476 114.276855,304.662476 
	C114.276855,265.991852 114.276855,227.400482 114.276855,188.448532 
	C115.204735,188.315109 116.301697,187.981110 117.381851,188.028671 
	C131.735977,188.660828 146.228546,188.336365 160.399368,190.311325 
	C173.772476,192.175095 183.243210,200.508850 186.575211,214.192413 
	C189.163681,224.822662 188.150162,235.658768 183.470535,245.273300 
	C180.771896,250.817795 174.807739,254.772903 169.938812,259.832672 
	C175.399979,268.520782 181.659256,278.446381 187.868591,288.403168 
	C188.542053,289.483063 188.926865,290.742981 189.709763,292.188232 
M168.137054,231.457657 
	C171.637817,219.887772 164.966232,207.151535 153.366043,205.252853 
	C146.157120,204.072906 138.597778,205.033737 131.400253,205.033737 
	C131.400253,219.116547 131.400253,232.479218 131.400253,245.998016 
	C138.278061,245.998016 144.760880,246.156219 151.232529,245.955460 
	C158.320068,245.735611 166.411697,238.981812 168.137054,231.457657 
z"/>
<path fill="#5651E5" opacity="1.000000" stroke="none" 
	d="
M355.013672,304.834320 
	C349.550934,304.834320 344.088196,304.834320 338.000916,304.834320 
	C338.000916,294.578979 337.620483,284.467590 338.144287,274.403259 
	C338.456116,268.412201 336.066071,263.505463 333.716614,258.561859 
	C330.774750,252.371872 327.253204,246.446152 323.792419,240.516922 
	C319.718475,233.537140 315.248688,226.783875 311.300293,219.736420 
	C306.115479,210.482040 301.235626,201.055313 296.342316,191.641510 
	C295.888336,190.768158 296.281830,189.454300 296.281830,188.004761 
	C302.226654,188.004761 308.063507,187.684189 313.825470,188.200150 
	C315.553864,188.354904 317.638245,190.539322 318.590729,192.313919 
	C322.684570,199.941208 326.206451,207.876862 330.338531,215.481873 
	C334.939606,223.950134 340.000824,232.167648 344.798981,240.530334 
	C345.579041,241.889923 346.034241,243.435913 346.948425,245.640564 
	C353.484650,233.462524 359.736938,221.852280 365.950348,210.221298 
	C369.274170,203.999420 372.317993,197.613312 375.954193,191.582306 
	C376.981323,189.878754 379.584045,188.325012 381.583862,188.160782 
	C387.193604,187.700043 392.865845,188.000168 399.847260,188.000168 
	C397.301147,192.655396 395.149078,196.560120 393.024994,200.480057 
	C388.671722,208.513870 384.447174,216.620026 379.955811,224.575699 
	C375.780029,231.972382 371.257202,239.172318 367.015930,246.533081 
	C363.247925,253.072464 359.656555,259.713623 355.739563,267.045502 
	C355.332458,280.132202 355.173065,292.483246 355.013672,304.834320 
z"/>
<path fill="#5651E5" opacity="1.000000" stroke="none" 
	d="
M250.999710,211.000000 
	C250.999771,182.169357 250.988525,153.838684 251.021698,125.508072 
	C251.024307,123.278816 250.055206,119.958679 254.756409,121.403503 
	C254.756409,206.657669 254.756409,291.932312 254.756409,377.494507 
	C252.321655,378.516571 250.896271,378.239502 250.975983,374.983856 
	C251.082001,370.653564 250.999847,366.318634 250.999832,361.985718 
	C250.999649,311.823822 250.999710,261.661896 250.999710,211.000000 
z"/>
<path fill="#6040FF" opacity="1.000000" stroke="none" 
	d="
M355.414062,304.677124 
	C355.173065,292.483246 355.332458,280.132202 355.663757,267.410675 
	C355.828583,279.533447 355.821533,292.026672 355.414062,304.677124 
z"/>
<path fill="#000000" opacity="1.000000" stroke="none" 
	d="
M168.079559,231.875229 
	C166.411697,238.981812 158.320068,245.735611 151.232529,245.955460 
	C144.760880,246.156219 138.278061,245.998016 131.400253,245.998016 
	C131.400253,232.479218 131.400253,219.116547 131.400253,205.033737 
	C138.597778,205.033737 146.157120,204.072906 153.366043,205.252853 
	C164.966232,207.151535 171.637817,219.887772 168.079559,231.875229 
z"/>
</svg>